<?xml version="1.0" encoding="UTF-8"?><!DOCTYPE svg PUBLIC "-//W3C//DTD SVG 1.1//EN" "http://www.w3.org/Graphics/SVG/1.1/DTD/svg11.dtd"><svg xmlns="http://www.w3.org/2000/svg" xmlns:xlink="http://www.w3.org/1999/xlink"><symbol id="icon--arrows-left" viewBox="0 0 17 10"><path d="M16.984 4.438H2.316L5.69 1.063 4.895.268.162 5l4.733 4.733.795-.795-3.374-3.375h14.668V4.438z" fill="#D6D4D4"/></symbol><symbol id="icon--arrows-sheck" viewBox="0 0 12 8"><path d="M1.41.59L6 5.17 10.59.59 12 2 6 8 0 2 1.41.59z" fill="#00C4FF"/></symbol><symbol id="icon--basket" viewBox="0 0 29 26"><path d="M8.1 18.443h16.653c.38 0 .714-.262.823-.643L28.964 5.87a.936.936 0 00-.134-.795.846.846 0 00-.69-.363H6.276L5.12.643A.865.865 0 004.296 0H.859C.385 0 0 .403 0 .9c0 .498.385.901.86.901h2.795l1.15 4.05a.913.913 0 00.012.04l3.057 10.76c-1.745.123-3.129 1.65-3.129 3.509 0 1.94 1.505 3.518 3.356 3.518h.853c.373 1.34 1.554 2.322 2.95 2.322 1.397 0 2.579-.982 2.951-2.322h4.559c.373 1.34 1.554 2.322 2.95 2.322 1.398 0 2.579-.982 2.952-2.322h1.107c.474 0 .859-.403.859-.9 0-.498-.385-.901-.86-.901h-1.106c-.373-1.34-1.554-2.322-2.951-2.322s-2.578.982-2.951 2.322h-4.559c-.372-1.34-1.554-2.322-2.95-2.322-1.397 0-2.579.982-2.951 2.322H8.1c-.903 0-1.638-.77-1.638-1.717 0-.947.735-1.717 1.638-1.717zM20.706 6.515h6.284l-1.183 4.163h-5.101V6.514zm0 5.964h4.59l-1.184 4.163h-3.406v-4.163zm-6.358-5.964h4.64v4.163h-4.64V6.514zm0 5.964h4.64v4.163h-4.64v-4.163zm-1.718 4.163H9.664l-1.183-4.163h4.148v4.163zM6.787 6.515h5.842v4.163h-4.66L6.788 6.514zm15.578 14.841c.747 0 1.355.638 1.355 1.421 0 .784-.608 1.421-1.355 1.421-.748 0-1.356-.637-1.356-1.42 0-.784.608-1.422 1.356-1.422zm-10.46 0c.747 0 1.355.638 1.355 1.421 0 .784-.608 1.421-1.355 1.421-.748 0-1.356-.637-1.356-1.42 0-.784.608-1.422 1.356-1.422z" fill="#1A2345"/></symbol><symbol id="icon--cart-del" viewBox="0 0 19 25"><path fill-rule="evenodd" clip-rule="evenodd" d="M13.49 3.307h1.897c.764 0 1.537.008 2.3-.009.477-.008.781.009 1.102.398.345.431.255 1.094-.18 1.409-.075.05-.149.09-.223.124a1.18 1.18 0 01-.386.066c.017 2.147-.008 4.301-.008 6.447V22.15c0 .63.066 1.219-.247 1.79-.27.506-.764.87-1.314.995-.518.107-1.258.05-1.8.05-2.86 0-5.727-.042-8.594 0-.55 0-1.11.008-1.668.008-.362 0-.723 0-1.085-.009-.23-.008-.534-.008-.756-.058-.534-.116-1.027-.53-1.29-1.002-.312-.555-.246-1.202-.246-1.807V11.71c0-1.152.008-2.312 0-3.464 0-.986.024-1.972.008-2.95-.23-.008-.444-.041-.674-.24-.378-.323-.427-.936-.148-1.342.386-.58 1.47-.423 2.07-.423.609 0 1.209.017 1.817.017.46.008.96.016 1.438.008-.009-.207-.009-.406-.009-.605 0-.356-.008-.936.099-1.26.156-.497.444-.87.88-1.127C6.997.01 7.45.042 8.024.042c.493 0 .986 0 1.479-.009.403 0 .805-.024 1.208-.033 1.142-.008 2.366.207 2.703 1.492.09.348.082.862.082 1.218 0 .199-.008.398-.008.597zM7.474 3.29l4.042.008v-.373c0-.273.008-.563-.008-.837 0-.008-.008-.024-.008-.041H7.59c-.124.199-.132.796-.115 1.243zm-4.47 19.68c.008 0 .008.009.016.009.082.008.189 0 .263 0h11.8c.164 0 .763.041.911-.008l.008-17.676-13.007.017L2.98 22.88l.025.082v.009zm6.49-7.184a23.959 23.959 0 01-.559.588l-1.831 1.832c-.132.133-.239.273-.386.406-.42.365-.937.464-1.389.075a.931.931 0 01-.345-.713c0-.539.386-.845.715-1.185.304-.307.608-.622.912-.92l1.462-1.483-.583-.58c-.296-.315-.608-.613-.904-.92l-.912-.92c-.14-.14-.271-.248-.394-.406-.37-.456-.436-1.02.04-1.442a.935.935 0 01.748-.265c.477.05.748.406 1.06.721l2.367 2.395c.04-.042.074-.083.115-.116l2.76-2.784.025-.017c.929-.713 2.137.505 1.364 1.434l-.016.024-2.745 2.776a1.357 1.357 0 00-.106.116l2.424 2.437h.008c.156.182.353.323.493.522.674.928-.575 2.071-1.463 1.317-.222-.19-.452-.43-.657-.638a57.1 57.1 0 01-.994-1.01c-.403-.415-.797-.838-1.208-1.244z" fill="#A5A6A7"/></symbol><symbol id="icon--cart" viewBox="0 0 31 24"><path clip-rule="evenodd" d="M10.042 5.28h18.2c.723 0 1.336.7 1.36 1.46l-1.358 9.274c-.22.75-.634 1.586-1.376 1.586h-15.11c-.516 0-.928-.21-1.38-1.578L8.68 6.763c.004-.073.016-.127.03-.196.004-.023.007-.103.01-.127.148-.623.693-1.16 1.321-1.16zm15.044 17.312c-.93 0-1.687-.762-1.687-1.7s.757-1.7 1.687-1.7c.931 0 1.689.762 1.689 1.7s-.758 1.7-1.689 1.7zm-11.528 0c-.93 0-1.688-.762-1.688-1.7s.757-1.7 1.688-1.7c.93 0 1.688.762 1.688 1.7s-.757 1.7-1.688 1.7zM0 .704c0 .389.313.704.699.704h5.38L7.313 6.4c-.018.127-.03.29-.03.421 0 .043.004.102.012.144l1.716 9.419a.755.755 0 00.023.096c.225.69.712 2.18 2.046 2.565a3.107 3.107 0 00-.608 1.846c0 1.714 1.384 3.109 3.085 3.109s3.086-1.461 3.086-3.175c0-.65-.2-1.113-.538-1.817h6.433c-.338.704-.537 1.168-.537 1.817 0 1.714 1.384 3.142 3.085 3.142a3.086 3.086 0 002.469-4.939c.708-.22 1.556-.857 2.044-2.573a.714.714 0 00.02-.09l1.374-9.41c.005-.033.007-.134.007-.168 0-1.544-1.263-2.915-2.759-2.915H10.042c-.652 0-1.261.315-1.74.724l-1-4.03C7.221.251 6.943 0 6.623 0H.699A.702.702 0 000 .704z"/></symbol><symbol id="icon--chevron-down" viewBox="0 0 448 512"><path d="M207.029 381.476L12.686 187.132c-9.373-9.373-9.373-24.569 0-33.941l22.667-22.667c9.357-9.357 24.522-9.375 33.901-.04L224 284.505l154.745-154.021c9.379-9.335 24.544-9.317 33.901.04l22.667 22.667c9.373 9.373 9.373 24.569 0 33.941L240.971 381.476c-9.373 9.372-24.569 9.372-33.942 0z"/></symbol><symbol id="icon--connection" viewBox="0 0 66 66"><style>.st1{fill:none;stroke:#1d1d1d;stroke-width:3;stroke-miterlimit:10}</style><switch><g><path d="M42 66H24C10.7 66 0 55.3 0 42V24C0 10.7 10.7 0 24 0h18c13.3 0 24 10.7 24 24v18c0 13.3-10.7 24-24 24z" fill="#feec00" id="Back"/><g id="Icon"><circle class="st1" cx="33" cy="47.7" r="4.4"/><path class="st1" d="M23.6 38.4c5.2-5.2 13.6-5.2 18.8 0m-25-6.3c8.6-8.6 22.6-8.6 31.3 0m-37.6-6.3c12.1-12.1 31.7-12.1 43.8 0"/></g></g></switch></symbol><symbol id="icon--cross" viewBox="0 0 18 18"><path fill="#CDCDCD" d="M15 4.715L4.714 15.001 3 13.287 13.286 3z"/><path fill="#CDCDCD" d="M13.286 15L3 4.714 4.714 3 15 13.286z"/></symbol><symbol id="icon--minus" viewBox="0 0 18 18"><path fill="#CDCDCD" d="M3 8h12v2H3z"/></symbol><symbol id="icon--plus" viewBox="0 0 18 18"><path fill="#CDCDCD" d="M10 3v12H8V3z"/><path fill="#CDCDCD" d="M15 10H3V8h12z"/></symbol><symbol id="icon--shop-cart" viewBox="0 0 35 22"><path fill-rule="evenodd" clip-rule="evenodd" d="M30.505 20.244c.135-.623-.12-1.27-.405-1.63-1.144-1.462-3.43-.855-3.716.927a2.104 2.104 0 001.715 2.43 2.092 2.092 0 001.643-.424c.35-.296.636-.68.763-1.303zm-9.116-.095c.175-1.231-.755-2.182-1.795-2.334-1.207-.184-2.223.76-2.35 1.782-.151 1.27.738 2.246 1.794 2.382 1.271.168 2.2-.752 2.35-1.83zm-3.39-11.78l14.348.008c-.008.12-1.779 6.153-1.834 6.233-.588.04-2.24 0-2.946 0-.977 0-1.962.008-2.946.008-.032 0-5.757.04-5.829-.032-.08-.152-.548-4.331-.627-4.93-.056-.432-.111-.864-.167-1.287zm-.255-2.11l-.19-1.535c-.096-.799-.16-1.71-.302-2.485-.159-.863-.794-.943-1.62-1.15C15.052.935 11.47-.032 11.225 0h-.215c-.452-.032-1.048.528-1.008.967v.384c-.04.951 1.556 1.135 2.2 1.295.261.064 2.795.687 2.81.75l.048.257c.016.111.032.191.04.303.032.192.055.36.08.576l1.42 10.709c.112.879.23 1.51.938 1.774.436.168 4.47.072 5.296.08h8.012c.993 0 1.223-.496 1.47-1.239.436-1.35.897-2.725 1.357-4.044.183-.535 1.326-3.812 1.294-4.108-.031-.151.032-.12.032-.263.008-.136-.055-.128-.04-.264.048-.488-.452-.815-.905-.895l-16.31-.024zM1.115 9.885h3.762v-3.77C4.877 5.503 5.387 5 6 5a1.12 1.12 0 011.115 1.115v3.77h3.762c.62 0 1.123.502 1.123 1.115s-.503 1.115-1.123 1.115H7.115v3.77A1.12 1.12 0 016 17a1.126 1.126 0 01-1.123-1.115v-3.77H1.115A1.12 1.12 0 010 11a1.12 1.12 0 011.115-1.115z" fill="#fff"/></symbol><symbol id="icon--tempo" viewBox="0 0 66 66"><style>.st1{fill:none;stroke:#1d1d1d;stroke-width:3;stroke-miterlimit:10}</style><switch><g><path d="M42 66H24C10.7 66 0 55.3 0 42V24C0 10.7 10.7 0 24 0h18c13.3 0 24 10.7 24 24v18c0 13.3-10.7 24-24 24z" fill="#feec00" id="Back"/><g id="Icon"><circle class="st1" cx="33" cy="33.1" r="3.6"/><circle class="st1" cx="33" cy="33.1" r="10.9"/><circle class="st1" cx="33" cy="33.1" r="18.1"/><path class="st1" d="M33 15v-4.8m0 41V56m18.1-22.9h4.8m-45.8 0h4.8"/></g></g></switch></symbol><symbol id="icon__akses-podsak-i-kukan" viewBox="0 0 666.26 670.02"><path class="fil0" d="M558.22 25.52c62.14 53.49 46.52 173.52-34.89 268.09-75.48 87.69-181 122.7-245.5 84.7L26.75 670.01 0 646.99l251.08-291.7c-47.17-58.13-28.26-167.68 47.22-255.37 81.41-94.58 197.77-127.89 259.91-74.4zM350.69 411.44c15.8 5.89 33.42 11.66 52.12 16.47 1.48-5.12 6.2-8.87 11.79-8.87 6.78 0 12.27 5.49 12.27 12.27 0 .69-.06 1.37-.17 2.03 8.98 1.77 18.11 3.26 27.33 4.38a12.274 12.274 0 01-1.81-6.41c0-6.78 5.49-12.27 12.27-12.27 6.78 0 12.27 5.49 12.27 12.27 0 3.15-1.19 6.02-3.14 8.2 10.58.64 21.2.72 31.75.13a12.225 12.225 0 01-3.25-8.32c0-6.78 5.49-12.27 12.27-12.27 6.78 0 12.27 5.49 12.27 12.27 0 2.35-.66 4.55-1.81 6.42 9.19-1.3 18.28-3.2 27.19-5.76-.01-.22-.02-.44-.02-.66 0-6.78 5.49-12.27 12.27-12.27 4.04 0 7.63 1.96 9.87 4.97 3.91-1.71 7.76-3.58 11.56-5.62-4.85-1.64-8.34-6.23-8.34-11.63 0-6.78 5.49-12.27 12.27-12.27 6.78 0 12.27 5.49 12.27 12.27 0 .61-.04 1.2-.13 1.79a162.08 162.08 0 0019.01-15.51 12.24 12.24 0 01-5.79 1.45H614.54c-.13 0-.27.01-.41.01-6.78 0-12.27-5.49-12.27-12.27 0-6.78 5.49-12.27 12.27-12.27.14 0 .27 0 .41.01H615.01c6.78 0 12.27 5.49 12.27 12.27 0 2.12-.54 4.11-1.48 5.85.6-.62 1.2-1.22 1.79-1.85 4.93-5.26 9.31-10.71 13.21-16.33-.41.04-.83.06-1.25.06-6.78 0-12.27-5.49-12.27-12.27 0-6.78 5.49-12.27 12.27-12.27 5.09 0 9.45 3.09 11.31 7.5 1.87-3.75 3.56-7.55 5.07-11.41a12.228 12.228 0 01-3.29-8.36c0-5.85 4.1-10.75 9.58-11.97 1.89-8.15 3.09-16.46 3.73-24.88-.34.03-.68.04-1.03.04-6.78 0-12.27-5.49-12.27-12.27 0-6.78 5.49-12.27 12.27-12.27.45 0 .89.02 1.32.07-.4-8.19-1.27-16.43-2.53-24.67-6.21-.61-11.06-5.84-11.06-12.21 0-4.7 2.65-8.79 6.53-10.85-4.1-17.25-9.7-34.32-16.16-50.8-.85.19-1.74.29-2.64.29-6.78 0-12.27-5.49-12.27-12.27 0-4.29 2.2-8.07 5.54-10.26-2.08-4.62-4.21-9.17-6.37-13.64-.34 6.48-5.69 11.63-12.25 11.63-1.58 0-3.09-.3-4.48-.84-.53 3.83-1.15 7.63-1.87 11.4-1.43 7.55-3.21 15.04-5.33 22.47 1.6-4.92 6.22-8.48 11.67-8.48 6.78 0 12.27 5.49 12.27 12.27 0 6.78-5.49 12.27-12.27 12.27-6.78 0-12.27-5.49-12.27-12.27 0-1.04.13-2.05.37-3.01-1.69 5.87-3.58 11.69-5.66 17.46 3.2 2.22 5.29 5.91 5.29 10.09 0 6.78-5.49 12.27-12.27 12.27H590.01c-.14 0-.27.01-.41.01-.44 0-.87-.02-1.29-.07-7.92 17.4-17.48 34.13-28.23 49.88 1.3-.47 2.7-.73 4.16-.73.14 0 .27 0 .41.01H565.12c6.78 0 12.27 5.49 12.27 12.27 0 6.78-5.49 12.27-12.27 12.27H564.65c-.14 0-.27.01-.41.01-6.78 0-12.27-5.49-12.27-12.27v-.17c-3.2 4.31-6.49 8.54-9.85 12.68 5.62 1.12 9.85 6.08 9.85 12.03 0 6.78-5.49 12.27-12.27 12.27-5.32 0-9.85-3.39-11.55-8.13-2.78 3.03-5.61 6.02-8.51 8.97 4.56 1.79 7.79 6.23 7.79 11.43 0 6.78-5.49 12.27-12.27 12.27H514.69c-.14 0-.27.01-.41.01-5.18 0-9.61-3.21-11.41-7.74a344.58 344.58 0 01-9.59 8.27c5.05 1.52 8.73 6.21 8.73 11.75 0 6.78-5.49 12.27-12.27 12.27H489.28c-.14 0-.27.01-.41.01-6.38 0-11.63-4.88-12.22-11.11-16.46 12.01-34.04 22.45-52.42 30.75-2.24 2.97-5.8 4.9-9.81 4.9-.52 0-1.02-.03-1.52-.09-3.75 1.49-7.53 2.88-11.34 4.18-.88.3-1.76.59-2.64.88 1.51 2.04 2.41 4.57 2.41 7.3 0 6.78-5.49 12.27-12.27 12.27-6.78 0-12.27-5.49-12.27-12.27 0-.44.02-.88.07-1.3-8.47 1.83-17.07 3.14-25.69 3.83-.16.74-.38 1.46-.66 2.15zm271.24-284.81c-3.18-6.24-6.4-12.3-9.63-18.14.31 5.41.38 10.85.23 16.28.81-.17 1.65-.26 2.52-.26 2.55 0 4.92.78 6.88 2.11zM452.24 406.77c0 6.78-5.49 12.27-12.27 12.27H439.51c-.14 0-.27.01-.41.01-6.78 0-12.27-5.49-12.27-12.27 0-6.78 5.49-12.27 12.27-12.27.14 0 .27 0 .41.01H439.97c6.78 0 12.27 5.49 12.27 12.27zm150.53-147.26c0 6.78-5.49 12.27-12.27 12.27H590.03c-.14 0-.27.01-.41.01-6.78 0-12.27-5.49-12.27-12.27 0-6.78 5.49-12.27 12.27-12.27.14 0 .27 0 .41.01H590.49c6.78 0 12.27 5.49 12.27 12.27zM502.14 406.77c0 6.78-5.49 12.27-12.27 12.27H489.41c-.14 0-.27.01-.41.01-6.78 0-12.27-5.49-12.27-12.27 0-6.78 5.49-12.27 12.27-12.27.14 0 .27 0 .41.01H489.87c6.78 0 12.27 5.49 12.27 12.27zm75.27-73.63c0 6.78-5.49 12.27-12.27 12.27H564.67c-.14 0-.27.01-.41.01-6.78 0-12.27-5.49-12.27-12.27 0-6.78 5.49-12.27 12.27-12.27.14 0 .27 0 .41.01H565.14c6.78 0 12.27 5.49 12.27 12.27zm75.27-73.63c0 6.78-5.49 12.27-12.27 12.27H639.95c-.14 0-.27.01-.41.01-6.78 0-12.27-5.49-12.27-12.27 0-6.78 5.49-12.27 12.27-12.27.14 0 .27 0 .41.01H640.41c6.78 0 12.27 5.49 12.27 12.27zM552.05 406.77c0 6.78-5.49 12.27-12.27 12.27-6.78 0-12.27-5.49-12.27-12.27 0-6.78 5.49-12.27 12.27-12.27 6.78 0 12.27 5.49 12.27 12.27zm75.27-73.63c0 6.78-5.49 12.27-12.27 12.27-6.78 0-12.27-5.49-12.27-12.27 0-6.78 5.49-12.27 12.27-12.27 6.78 0 12.27 5.49 12.27 12.27zm-100.63 49.09c0 6.78-5.49 12.27-12.27 12.27-6.78 0-12.27-5.49-12.27-12.27 0-6.78 5.49-12.27 12.27-12.27 6.78 0 12.27 5.49 12.27 12.27zm75.27-73.63c0 6.78-5.49 12.27-12.27 12.27-6.78 0-12.27-5.49-12.27-12.27 0-6.78 5.49-12.27 12.27-12.27 6.78 0 12.27 5.49 12.27 12.27zm-25.36 73.63c0 6.78-5.49 12.27-12.27 12.27-6.78 0-12.27-5.49-12.27-12.27 0-6.78 5.49-12.27 12.27-12.27 6.78 0 12.27 5.49 12.27 12.27zm75.27-73.63c0 6.78-5.49 12.27-12.27 12.27-6.78 0-12.27-5.49-12.27-12.27 0-6.78 5.49-12.27 12.27-12.27 6.78 0 12.27 5.49 12.27 12.27zm.82-98.17c0 6.78-5.49 12.27-12.27 12.27H639.95c-.14 0-.27.01-.41.01-6.78 0-12.27-5.49-12.27-12.27 0-6.78 5.49-12.27 12.27-12.27.14 0 .27 0 .41.01H640.42c6.78 0 12.27 5.49 12.27 12.27zM552.06 357.69c0 6.78-5.49 12.27-12.27 12.27-6.78 0-12.27-5.49-12.27-12.27 0-6.78 5.49-12.27 12.27-12.27 6.78 0 12.27 5.49 12.27 12.27zm75.27-73.63c0 6.78-5.49 12.27-12.27 12.27-6.78 0-12.27-5.49-12.27-12.27 0-6.78 5.49-12.27 12.27-12.27 6.78 0 12.27 5.49 12.27 12.27zm-25.36 73.63c0 6.78-5.49 12.27-12.27 12.27-6.78 0-12.27-5.49-12.27-12.27 0-6.78 5.49-12.27 12.27-12.27 6.78 0 12.27 5.49 12.27 12.27zM476.8 382.23c0 6.78-5.49 12.27-12.27 12.27-6.78 0-12.27-5.49-12.27-12.27 0-6.78 5.49-12.27 12.27-12.27 6.78 0 12.27 5.49 12.27 12.27zm150.53-147.26c0 6.78-5.49 12.27-12.27 12.27-6.78 0-12.27-5.49-12.27-12.27 0-6.78 5.49-12.27 12.27-12.27 6.78 0 12.27 5.49 12.27 12.27zm-92.11-182.7c47.37 40.77 30.08 138.52-38.61 218.33s-162.78 111.45-210.15 70.68c-47.37-40.77-30.08-138.52 38.61-218.33S487.85 11.5 535.22 52.27z"/></symbol></svg>